<svg xmlns="http://www.w3.org/2000/svg" width="198.762" height="42.789" viewBox="0 0 198.762 42.789">
  <g id="Group_16198" data-name="Group 16198" transform="translate(-200.44 -457.741)">
    <path id="Subtraction_3" data-name="Subtraction 3" d="M21.4,24.758H15.9V11.891a3.037,3.037,0,0,0-.242-1.193,3.09,3.09,0,0,0-1.635-1.635,3.037,3.037,0,0,0-1.193-.242H0V3.354a3.375,3.375,0,0,1,.068-.676,3.341,3.341,0,0,1,.5-1.2A3.372,3.372,0,0,1,1.479.573a3.335,3.335,0,0,1,1.2-.5A3.383,3.383,0,0,1,3.354,0H21.4a3.384,3.384,0,0,1,.676.068,3.338,3.338,0,0,1,1.2.5,3.362,3.362,0,0,1,1.215,1.476,3.326,3.326,0,0,1,.2.63,3.375,3.375,0,0,1,.068.676V21.4a3.375,3.375,0,0,1-.068.676,3.338,3.338,0,0,1-.5,1.2,3.364,3.364,0,0,1-1.476,1.215,3.339,3.339,0,0,1-.629.2A3.38,3.38,0,0,1,21.4,24.758Z" transform="translate(203.193 466.853)"/>
    <g id="Group_16196" data-name="Group 16196" transform="translate(200.44 457.741)">
      <path id="Subtraction_4" data-name="Subtraction 4" d="M15.58,17.6H2.022a2,2,0,0,1-.737-.14c.02-.016.039-.034.056-.051L12.248,6.527v4.042a.839.839,0,1,0,1.677,0V4.585a.836.836,0,0,0-.134-.454.839.839,0,0,0-1.019-.384H6.9a.838.838,0,1,0,0,1.677H10.98L.157,16.224l-.037.04A2,2,0,0,1,0,15.58V2.022a1.994,1.994,0,0,1,.16-.785A2.024,2.024,0,0,1,.347.893,2.047,2.047,0,0,1,.893.346,2.023,2.023,0,0,1,1.237.16,2,2,0,0,1,2.022,0H15.58a2,2,0,0,1,.785.16,2.024,2.024,0,0,1,.343.187,2.049,2.049,0,0,1,.547.547,2.025,2.025,0,0,1,.187.343,2,2,0,0,1,.16.785V15.58a2,2,0,0,1-.16.785,2.02,2.02,0,0,1-.187.343,2.049,2.049,0,0,1-.547.547,2.028,2.028,0,0,1-.343.187A2,2,0,0,1,15.58,17.6Z" transform="translate(0 18.98)" fill="red"/>
      <g id="Group_5520" data-name="Group 5520" transform="translate(33.205 0)">
        <text id="Inn" transform="translate(36.181 27.034)" font-size="25" font-family="SegoeUI-Bold, Segoe UI" font-weight="700"><tspan x="0" y="0">Inn</tspan></text>
        <text id="vation" transform="translate(91.449 27.034)" font-size="25" font-family="SegoeUI-Bold, Segoe UI" font-weight="700"><tspan x="0" y="0">vation</tspan></text>
        <text id="o" transform="translate(76.082 27.034)" font-size="25" font-family="SegoeUI-Bold, Segoe UI" font-weight="700"><tspan x="0" y="0">o</tspan></text>
        <text id="EZ" transform="translate(0 27)" fill="red" font-size="25" font-family="SegoeUI-Bold, Segoe UI" font-weight="700"><tspan x="0" y="0">EZ</tspan></text>
      </g>
      <text id="Software_Services_for_Startups" data-name="Software Services for Startups" transform="translate(71.762 40.789)" fill="#333" font-size="8" font-family="Lato-Bold, Lato" font-weight="700" letter-spacing="0.07em"><tspan x="0" y="0">Software Services For Startups</tspan></text>
    </g>
  </g>
</svg>
